HIERARCHY
ROOT Hips
{
 OFFSET 0.000000 0.000000 0.000000
 CHANNELS 6 Xposition Yposition Zposition Yrotation Xrotation Zrotation
 JOINT Chest
 {
  OFFSET 0.000000 9.585900 0.002600
  CHANNELS 3 Yrotation Xrotation Zrotation
  JOINT Chest2
  {
   OFFSET 0.000000 9.601200 -0.005300
   CHANNELS 3 Yrotation Xrotation Zrotation
   JOINT Chest3
   {
    OFFSET 0.000000 9.561800 0.000000
    CHANNELS 3 Yrotation Xrotation Zrotation
    JOINT Chest4
    {
     OFFSET 0.000000 9.552100 0.000000
     CHANNELS 3 Yrotation Xrotation Zrotation
     JOINT Neck
     {
      OFFSET 0.000000 14.453000 0.000000
      CHANNELS 3 Yrotation Xrotation Zrotation
      JOINT Head
      {
       OFFSET 0.000000 8.936500 -0.011300
       CHANNELS 3 Yrotation Xrotation Zrotation
       End Site
       {
        OFFSET 0.000000 17.073600 -0.006000
       }
      }
     }
     JOINT RightCollar
     {
      OFFSET -2.921100 9.558500 0.000000
      CHANNELS 3 Yrotation Xrotation Zrotation
      JOINT RightShoulder
      {
       OFFSET -13.519700 0.000000 0.000000
       CHANNELS 3 Yrotation Xrotation Zrotation
       JOINT RightElbow
       {
        OFFSET 0.000000 -29.696600 0.000000
        CHANNELS 3 Yrotation Xrotation Zrotation
        JOINT RightWrist
        {
         OFFSET 0.000000 -24.004700 0.000000
         CHANNELS 3 Yrotation Xrotation Zrotation
         End Site
         {
          OFFSET 0.000000 -17.728500 0.000000
         }
        }
       }
      }
     }
     JOINT LeftCollar
     {
      OFFSET 2.921100 9.558500 0.000000
      CHANNELS 3 Yrotation Xrotation Zrotation
      JOINT LeftShoulder
      {
       OFFSET 13.519700 0.000000 0.000000
       CHANNELS 3 Yrotation Xrotation Zrotation
       JOINT LeftElbow
       {
        OFFSET 0.000000 -29.696600 0.000000
        CHANNELS 3 Yrotation Xrotation Zrotation
        JOINT LeftWrist
        {
         OFFSET 0.000000 -24.004700 0.000000
         CHANNELS 3 Yrotation Xrotation Zrotation
         End Site
         {
          OFFSET 0.000000 -17.728500 0.000000
         }
        }
       }
      }
     }
    }
   }
  }
 }
 JOINT RightHip
 {
  OFFSET -7.771700 -0.012900 -0.001300
  CHANNELS 3 Yrotation Xrotation Zrotation
  JOINT RightKnee
  {
   OFFSET 0.000000 -40.869800 0.001200
   CHANNELS 3 Yrotation Xrotation Zrotation
   JOINT RightAnkle
   {
    OFFSET 0.000000 -39.717900 0.002100
    CHANNELS 3 Yrotation Xrotation Zrotation
    JOINT RightToe
    {
     OFFSET 0.000000 -4.965400 11.033500
     CHANNELS 3 Yrotation Xrotation Zrotation
     End Site
     {
      OFFSET 0.000000 -1.423100 5.872300
     }
    }
   }
  }
 }
 JOINT LeftHip
 {
  OFFSET 7.771700 -0.012900 -0.001300
  CHANNELS 3 Yrotation Xrotation Zrotation
  JOINT LeftKnee
  {
   OFFSET 0.000000 -40.869800 0.001200
   CHANNELS 3 Yrotation Xrotation Zrotation
   JOINT LeftAnkle
   {
    OFFSET 0.000000 -39.717900 0.002100
    CHANNELS 3 Yrotation Xrotation Zrotation
    JOINT LeftToe
    {
     OFFSET 0.000000 -4.965400 11.033500
     CHANNELS 3 Yrotation Xrotation Zrotation
     End Site
     {
      OFFSET 0.000000 -1.423100 5.872300
     }
    }
   }
  }
 }
}
MOTION
Frames: 5
Frame Time: 0.008333
0.000000 85.388000 0.000000 0.000000 -5.767877 0.000000 0.000000 11.653817 0.000000 0.000000 -5.885947 0.000000 0.000000 -0.000000 0.000000 0.000000 -0.000000 0.000000 0.000000 12.528835 0.000000 0.000000 0.711642 0.000000 0.000000 -0.000000 0.000000 0.000000 0.000000 -90.000000 0.000000 -2.309062 0.000000 0.000000 2.309062 0.000000 0.000000 -0.000000 0.000000 0.000000 -0.000000 90.000000 0.000000 -2.309062 0.000000 0.000000 2.309062 0.000000 0.000000 8.520406 0.000000 0.000000 1.905762 0.000000 -0.000000 -4.658285 0.000000 0.000000 -0.000000 0.000000 0.000000 8.520406 0.000000 0.000000 1.905762 0.000000 -0.000000 -4.658285 0.000000 0.000000 -0.000000 0.000000
-18.741546 62.336919 12.584684 175.382220 -56.005903 -1.096856 4.272933 25.793211 -0.021950 0.629194 4.176386 -0.050634 1.013744 6.753010 -0.053602 3.278979 21.172532 0.254615 0.985426 21.362109 -2.300686 2.441330 3.941120 -4.415994 12.567905 1.276841 -3.668062 38.038089 -44.914111 -57.225131 -111.178237 -61.571296 151.393527 18.148339 15.060310 42.827233 -7.562114 -3.986290 12.783039 -49.569423 -44.210199 58.875056 41.139939 -68.583507 -82.187763 23.066763 -5.674243 -13.406016 2.329680 -10.606576 -4.767453 -2.518635 59.882185 -5.651295 1.916278 -6.452972 10.641229 0.213915 -0.488968 0.070473 -2.123884 -8.041430 3.575940 23.690617 76.260033 23.899611 0.911486 -11.263362 -2.331703 0.126580 0.475866 0.040944
-18.740926 62.333818 12.575554 175.398398 -55.985617 -1.099027 4.267852 25.842739 -0.030254 0.637868 4.231339 -0.046210 0.998643 6.665079 -0.058440 3.302613 21.224379 0.269857 0.956201 21.273678 -2.300509 2.420413 3.766970 -4.317999 12.534667 1.195360 -3.690027 37.824670 -44.865981 -57.054486 -111.432125 -61.648261 151.651917 18.044394 15.034346 42.746846 -7.638194 -4.025201 12.779793 -49.389850 -44.226107 58.669799 41.296784 -69.108471 -81.947628 22.579465 -5.233073 -13.405515 2.322016 -10.632330 -4.788058 -2.509735 59.909164 -5.629553 1.909252 -6.468894 10.634220 0.222595 -0.490653 0.068672 -2.144780 -8.063569 3.568404 23.709343 76.270858 23.908952 0.905789 -11.271861 -2.331473 0.130850 0.478139 0.043239
-18.736181 62.328541 12.566786 175.392473 -55.949139 -1.107097 4.287554 25.864569 -0.013739 0.640696 4.238364 -0.044178 1.002030 6.673271 -0.053279 3.315878 21.239007 0.280396 0.935609 21.182320 -2.264885 2.390335 3.596797 -4.245406 12.485359 1.117813 -3.696377 37.629321 -44.803259 -56.901289 -111.755984 -61.737731 151.978755 17.930536 15.006630 42.670586 -7.754557 -4.024739 12.757179 -49.189902 -44.247973 58.503586 41.507900 -69.660007 -81.713885 22.021813 -4.749691 -13.438070 2.318902 -10.677663 -4.776320 -2.511215 59.930424 -5.628637 1.909158 -6.472877 10.635176 0.222130 -0.494105 0.067833 -2.158817 -8.102863 3.583662 23.736445 76.293492 23.932647 0.906523 -11.294664 -2.325061 0.138392 0.483998 0.029178
-18.729419 62.326019 12.555437 175.390972 -55.931563 -1.129696 4.310306 25.906771 0.017353 0.643363 4.245255 -0.042518 1.020198 6.741196 -0.047096 3.311602 21.193890 0.285686 0.947417 21.088994 -2.173285 2.338635 3.430432 -4.212594 12.453093 1.036545 -3.707115 37.417395 -44.728633 -56.741837 -112.137978 -61.830879 152.350350 17.816057 14.976689 42.611559 -7.841989 -4.045711 12.734366 -48.997482 -44.262732 58.310090 41.707262 -70.262338 -81.426306 21.433790 -4.243319 -13.517868 2.311249 -10.700779 -4.752664 -2.513252 59.950485 -5.628324 1.918295 -6.477659 10.634075 0.202794 -0.494955 0.069694 -2.174949 -8.123136 3.607580 23.711622 76.330415 23.915925 0.922966 -11.317600 -2.345203 0.148904 0.483615 0.039258
